<svg xmlns="http://www.w3.org/2000/svg" version="1.1" xmlns:xlink="http://www.w3.org/1999/xlink" width="512" height="512" x="0" y="0" viewBox="0 0 512 512" style="enable-background:new 0 0 512 512" xml:space="preserve" class=""><g><path d="M240 270h30v30h-30zM270 240h-30c0-24.91 12.11-48.668 34.102-66.89C281.027 167.366 285 158.944 285 150c0-16.543-13.457-30-30-30s-30 13.457-30 30h-30c0-33.086 26.914-60 60-60s60 26.914 60 60c0 17.906-7.93 34.75-21.758 46.207C284.562 203.402 270 218.657 270 240zm0 0" fill="#ffffff" opacity="1" data-original="#000000" class=""></path><path d="M60 471.215V335.434C21.785 298.688 0 247.89 0 195 0 87.477 87.477 0 195 0h120c52.164 0 101.46 20.254 138.805 57.035C491.332 93.992 512 142.992 512 195s-20.668 101.008-58.195 137.965C416.46 369.746 367.165 390 315 390H195a194.715 194.715 0 0 1-47.816-5.969zM195 30c-90.98 0-165 74.02-165 165 0 46.64 20.05 91.371 55.016 122.727L90 322.199v76.586l48.512-48.508 8.597 2.606C162.703 357.605 178.816 360 195 360h120c92.086 0 167-74.02 167-165S407.086 30 315 30zm0 0" fill="#ffffff" opacity="1" data-original="#000000" class=""></path></g></svg>