<svg id="Layer_1" viewBox="0 0 512 512" xmlns="http://www.w3.org/2000/svg" data-name="Layer 1"><path d="m461.05 337.81a50.437 50.437 0 0 0 -39.77 19.43l-144.01-83.14a59.5 59.5 0 0 0 -9.2-64.7l88.75-98.79a50.469 50.469 0 1 0 28.17-92.33h-.01a50.443 50.443 0 0 0 -38.57 82.96l-88.76 98.8a59.3 59.3 0 0 0 -27.32-10.49v-89.1a50.49 50.49 0 1 0 -14 0v89.1a59.719 59.719 0 0 0 -52.41 54.11l-63 .21a50.5 50.5 0 1 0 .04 14.01l63.4-.21a59.506 59.506 0 0 0 15.72 32.08l-47.63 57.21a50.565 50.565 0 1 0 10.76 8.96l47.63-57.2a59.351 59.351 0 0 0 25.49 9.24v103.59a50.46 50.46 0 1 0 14 0v-103.59a59.539 59.539 0 0 0 39.52-21.98l144.41 83.38a50.458 50.458 0 1 0 46.79-31.55zm-76.05-305.52a36.465 36.465 0 1 1 -36.46 36.48 36.519 36.519 0 0 1 36.46-36.48zm-334.05 255.23a36.465 36.465 0 1 1 36.49-36.48 36.5 36.5 0 0 1 -36.49 36.48zm54.91 138.79a36.47 36.47 0 1 1 36.48-36.46 36.5 36.5 0 0 1 -36.48 36.46zm80.99-375.85a36.465 36.465 0 1 1 36.48 36.48 36.511 36.511 0 0 1 -36.48-36.48zm72.93 411.08a36.465 36.465 0 1 1 -36.45-36.48 36.5 36.5 0 0 1 36.45 36.48zm-36.45-167.16a45.625 45.625 0 1 1 45.61-45.64 45.687 45.687 0 0 1 -45.61 45.64zm237.72 130.37a36.47 36.47 0 1 1 36.45-36.46 36.513 36.513 0 0 1 -36.45 36.46z" fill="#1865c1"/><path d="m259.78 50.46a36.465 36.465 0 1 1 -36.45-36.46 36.509 36.509 0 0 1 36.45 36.46z" fill="#e6faff"/><path d="m421.47 68.77a36.465 36.465 0 1 1 -36.47-36.48 36.5 36.5 0 0 1 36.47 36.48z" fill="#83dbf2"/><path d="m497.5 388.29a36.47 36.47 0 1 1 -36.45-36.48 36.492 36.492 0 0 1 36.45 36.48z" fill="#e6faff"/><path d="m268.94 248.74a45.625 45.625 0 1 1 -45.61-45.61 45.674 45.674 0 0 1 45.61 45.61z" fill="#83dbf2"/><path d="m87.44 251.04a36.47 36.47 0 1 1 -36.49-36.45 36.524 36.524 0 0 1 36.49 36.45z" fill="#83dbf2"/><path d="m142.34 389.85a36.465 36.465 0 1 1 -36.48-36.48 36.511 36.511 0 0 1 36.48 36.48z" fill="#e6faff"/><path d="m259.78 461.54a36.465 36.465 0 1 1 -36.45-36.48 36.5 36.5 0 0 1 36.45 36.48z" fill="#83dbf2"/></svg>