<?xml version="1.0" encoding="UTF-8" standalone="no"?>
<svg
   xmlns:dc="http://purl.org/dc/elements/1.1/"
   xmlns:cc="http://creativecommons.org/ns#"
   xmlns:rdf="http://www.w3.org/1999/02/22-rdf-syntax-ns#"
   xmlns:svg="http://www.w3.org/2000/svg"
   xmlns="http://www.w3.org/2000/svg"
   xmlns:xlink="http://www.w3.org/1999/xlink"
   xmlns:sodipodi="http://sodipodi.sourceforge.net/DTD/sodipodi-0.dtd"
   xmlns:inkscape="http://www.inkscape.org/namespaces/inkscape"
   width="511.998"
   height="512"
   viewBox="0 0 135.466 135.467"
   version="1.1"
   id="svg12"
   sodipodi:docname="user_v2.svg"
   inkscape:version="1.0.1 (3bc2e813f5, 2020-09-07)">
  <metadata
     id="metadata16">
    <rdf:RDF>
      <cc:Work
         rdf:about="">
        <dc:format>image/svg+xml</dc:format>
        <dc:type
           rdf:resource="http://purl.org/dc/dcmitype/StillImage" />
      </cc:Work>
    </rdf:RDF>
  </metadata>
  <sodipodi:namedview
     pagecolor="#ffffff"
     bordercolor="#666666"
     borderopacity="1"
     objecttolerance="10"
     gridtolerance="10"
     guidetolerance="10"
     inkscape:pageopacity="0"
     inkscape:pageshadow="2"
     inkscape:window-width="1920"
     inkscape:window-height="1017"
     id="namedview14"
     showgrid="false"
     inkscape:zoom="0.29969174"
     inkscape:cx="1015.1985"
     inkscape:cy="847.66164"
     inkscape:window-x="1912"
     inkscape:window-y="-8"
     inkscape:window-maximized="1"
     inkscape:current-layer="svg12" />
  <defs
     id="defs8">
    <linearGradient
       xlink:href="#a"
       id="b"
       x1="55.211"
       y1="232.855"
       x2="131.343"
       y2="139.311"
       gradientUnits="userSpaceOnUse" />
    <linearGradient
       id="a">
      <stop
         offset="0"
         stop-color="#ed0080"
         id="stop3"
         style="stop-color:#274685;stop-opacity:1" />
      <stop
         offset="1"
         stop-color="#f99d1c"
         id="stop5"
         style="stop-color:#1977cc;stop-opacity:1" />
    </linearGradient>
  </defs>
  <path
     d="M162.297 216.88a5.292 5.292 0 110-10.582 5.292 5.292 0 010 10.583zm17.38-23.122c-2.265-5.067-7.367-8.35-13.01-8.363h-16.538c-5.954 0-11.147 3.509-13.237 8.945a63.442 63.442 0 00-.973 2.697h-34.646c-1.43 0-2.8.58-3.797 1.606l-9.09 9.363a5.292 5.292 0 00.022 7.395l9.26 9.422a5.292 5.292 0 003.775 1.583h17.198a5.292 5.292 0 100-10.584h-14.98l-4.081-4.153 3.93-4.049h36.378a5.292 5.292 0 005.14-4.033c.428-1.748.965-3.429 1.742-5.45.512-1.332 1.799-2.158 3.371-2.158h16.513c1.496.003 2.784.808 3.361 2.098 1.421 3.179 3.117 8.099 3.13 13.49.013 5.432-1.682 10.465-3.106 13.73a3.613 3.613 0 01-3.323 2.167H150.005c-1.464-.003-2.835-.945-3.412-2.343-.619-1.5-1.155-3.214-1.64-5.238a5.292 5.292 0 00-10.292 2.463c.614 2.566 1.317 4.794 2.148 6.81 2.223 5.388 7.393 8.878 13.184 8.891H166.728c5.649 0 10.754-3.341 13.012-8.52 1.829-4.193 4.005-10.718 3.988-17.985-.017-7.246-2.212-13.67-4.05-17.784zm-91.33 38.998a5.292 5.292 0 01-5.292 5.292H64.32c-4.85 0-9.385-2.158-12.444-5.919a16.068 16.068 0 01-3.27-13.47c3.175-15.254 11.588-29.137 23.688-39.09a68.76 68.76 0 0122.175-12.187c-8.77-6.568-14.457-17.041-14.457-28.818 0-19.84 16.142-35.983 35.983-35.983 19.842 0 35.984 16.142 35.984 35.983 0 11.766-5.677 22.23-14.435 28.8.886.292 1.768.6 2.644.93a5.292 5.292 0 11-3.72 9.907 57.958 57.958 0 00-19.112-3.682c-.452.017-.905.029-1.36.029-.452 0-.901-.012-1.35-.028-26.89.625-50.185 19.901-55.68 46.297a5.53 5.53 0 001.121 4.635c.611.751 1.974 2.012 4.233 2.012h18.735a5.292 5.292 0 015.291 5.292zm26.408-68.822c.413-.007.826-.014 1.24-.014.413 0 .825.006 1.237.014 13.433-.648 24.163-11.779 24.163-25.37 0-14.005-11.394-25.4-25.4-25.4-14.006 0-25.4 11.395-25.4 25.4 0 13.59 10.728 24.72 24.16 25.37z"
     fill="url(#b)"
     transform="translate(-48.262 -102.58)"
     id="path10" />
</svg>
